<svg width="14" height="18" viewBox="0 0 14 18" fill="none" xmlns="http://www.w3.org/2000/svg">
<path d="M12.4906 5.29448C12.9464 4.85503 12.9464 4.14136 12.4906 3.7019C12.0349 3.26245 11.2948 3.26245 10.8391 3.7019L7.00001 7.40737L3.1573 3.70542C2.70157 3.26597 1.96147 3.26597 1.50574 3.70542C1.05001 4.14487 1.05001 4.85854 1.50574 5.298L5.34845 8.99995L1.50938 12.7054C1.05365 13.1449 1.05365 13.8585 1.50938 14.298C1.96511 14.7375 2.70522 14.7375 3.16095 14.298L7.00001 10.5925L10.8427 14.2945C11.2984 14.7339 12.0386 14.7339 12.4943 14.2945C12.95 13.855 12.95 13.1414 12.4943 12.7019L8.65157 8.99995L12.4906 5.29448Z" fill="#FD1F9B"/>
</svg>
